<svg width="3474" height="1260" viewBox="0 0 3474 1260" fill="none" xmlns="http://www.w3.org/2000/svg">
<rect width="3474" height="1259.39" rx="32" fill="#1467FF"/>
<path d="M1480.27 631.236C1480.27 644.7 1473.76 655.304 1454.18 655.304H1408.29V709.95H1377.71V564.138H1454.18C1473.76 564.138 1480.27 574.962 1480.27 588.426V631.236ZM1408.29 591.066V628.376H1443.18C1446.83 628.376 1449.91 625.297 1449.91 621.645V597.797C1449.91 594.145 1446.83 591.066 1443.18 591.066H1408.29Z" fill="white"/>
<path d="M1568.58 682.011H1520.05L1511.07 709.95H1482.3L1532.06 564.138H1558.99L1609.59 709.95H1577.77L1568.58 682.011ZM1549.18 620.809L1544.47 605.321H1544.25L1539.36 620.809L1528.54 655.48H1559.95L1549.13 620.809H1549.18Z" fill="white"/>
<path d="M1705.37 564.138C1724.95 564.138 1731.46 574.962 1731.46 588.426V630.224C1731.46 643.688 1724.95 654.292 1705.37 654.292H1702.29L1740.83 709.994H1704.53L1668.01 654.292H1657.8V709.994H1627.22V564.182H1705.32L1705.37 564.138ZM1657.85 627.365H1694.37C1698.02 627.365 1701.1 624.285 1701.1 620.633V597.797C1701.1 594.145 1698.02 591.066 1694.37 591.066H1657.85V627.365Z" fill="white"/>
<path d="M1841.32 682.011H1792.79L1783.81 709.95H1755.04L1804.8 564.138H1831.73L1882.33 709.95H1850.52L1841.32 682.011ZM1821.92 620.809L1817.21 605.321H1816.99L1812.11 620.809L1801.28 655.48H1832.7L1821.87 620.809H1821.92Z" fill="white"/>
<path d="M1930.89 564.138L1971.28 640.212L2011.85 564.138H2038.78V709.95H2009.61V626.133H2009.39L1973.88 690.811H1966.75L1932.3 626.133H1932.08V709.95H1902.69V564.138H1930.85H1930.89Z" fill="white"/>
<path d="M2104.83 709.95H2074.25V564.138H2104.83V709.95Z" fill="white"/>
<path d="M2140.25 709.95V564.138H2226.22V591.066H2170.83V622.657H2213.46V650.2H2170.83V709.95H2140.25Z" fill="white"/>
<path d="M2283.15 645.712L2238.66 564.138H2272.72L2299.65 615.749L2326.57 564.138H2359L2314.52 645.712V709.95H2283.1V645.712H2283.15Z" fill="white"/>
<path d="M1273.53 557.067L1158.86 490.896L1120.7 512.938L1115.18 516.144V522.556L1115 566.551L1186.02 607.563L1120.57 645.369L1115 648.575V743.156L1153.3 765.287L1158.86 768.493L1164.43 765.287L1202.72 743.156V699.161L1279.09 655.076V560.317L1273.53 557.067ZM1158.86 503.765L1262.35 563.524L1235.36 579.109L1131.88 519.35L1158.91 503.765H1158.86ZM1126.13 560.139L1126.27 529.013L1229.75 588.727V597.054V619.987L1197.11 601.151L1126.09 560.139H1126.13ZM1197.16 614.02L1224.23 629.65L1158.86 667.456L1131.7 651.781L1197.16 614.02ZM1153.3 752.418L1126.13 736.744V661.444L1153.3 677.119V752.418ZM1267.96 648.664L1191.59 692.749V736.744L1164.43 752.418V677.119L1235.45 636.107L1240.93 632.945H1241.02V626.444L1240.93 588.772L1267.96 573.142V648.664Z" fill="white"/>
</svg>
