<svg width="1533" height="342" viewBox="0 0 1533 342" fill="none" xmlns="http://www.w3.org/2000/svg">
<path d="M449.69 172.357C449.69 188.944 441.667 202.008 417.546 202.008H361.008V269.332H323.335V89.6921H417.546C441.667 89.6921 449.69 103.027 449.69 119.614V172.357ZM361.008 122.867V168.834H403.994C408.493 168.834 412.288 165.039 412.288 160.54V131.16C412.288 126.661 408.493 122.867 403.994 122.867H361.008Z" fill="#1467FF"/>
<path d="M558.487 234.911H498.697L487.639 269.332H452.188L513.495 89.6921H546.67L609.007 269.332H569.816L558.487 234.911ZM534.582 159.51L528.782 140.429H528.511L522.494 159.51L509.159 202.225H547.862L534.528 159.51H534.582Z" fill="#1467FF"/>
<path d="M727.008 89.6921C751.13 89.6921 759.153 103.027 759.153 119.614V171.11C759.153 187.697 751.13 200.761 727.008 200.761H723.214L770.699 269.387H725.979L680.987 200.761H668.411V269.387H630.738V89.7464H726.954L727.008 89.6921ZM668.466 167.587H713.457C717.956 167.587 721.75 163.792 721.75 159.293V131.16C721.75 126.661 717.956 122.867 713.457 122.867H668.466V167.587Z" fill="#1467FF"/>
<path d="M894.504 234.911H834.715L823.656 269.332H788.205L849.513 89.6921H882.687L945.024 269.332H905.833L894.504 234.911ZM870.599 159.51L864.799 140.429H864.528L858.511 159.51L845.176 202.225H883.88L870.545 159.51H870.599Z" fill="#1467FF"/>
<path d="M1004.86 89.6921L1054.62 183.415L1104.6 89.6921H1137.77V269.332H1101.83V166.069H1101.56L1057.82 245.752H1049.04L1006.59 166.069H1006.32V269.332H970.111V89.6921H1004.8H1004.86Z" fill="#1467FF"/>
<path d="M1219.15 269.332H1181.48V89.6921H1219.15V269.332Z" fill="#1467FF"/>
<path d="M1262.78 269.332V89.6921H1368.7V122.867H1300.46V161.787H1352.98V195.72H1300.46V269.332H1262.78Z" fill="#1467FF"/>
<path d="M1438.83 190.191L1384.03 89.6921H1425.99L1459.16 153.276L1492.33 89.6921H1532.28L1477.48 190.191V269.332H1438.78V190.191H1438.83Z" fill="#1467FF"/>
<path d="M194.33 80.6049L54.8027 0L8.40201 26.778L0.216872 31.4939V40.8715L0 94.4817L85.1583 143.593L8.13096 188.042L0.0542593 192.704V309.41L46.6717 336.351L54.8027 341.013L62.9336 336.351L109.551 309.41V255.908L202.461 202.244V85.2666L194.33 80.6049ZM54.8027 18.7554L178.068 89.9827L147.875 107.383L24.6098 36.2098L54.8027 18.7554ZM16.3162 85.104L16.4245 50.2493L139.744 121.477V156.331L101.42 134.215L16.3704 85.104H16.3162ZM101.42 153.025L131.667 170.479L74.3712 203.653L54.8027 214.928L39.8959 206.364L24.4471 197.42L101.42 153.025ZM46.6717 317.595L16.3162 300.032V211.513L46.6717 229.022V317.595ZM186.199 192.866L93.2893 246.531V300.032L62.9336 317.595V229.022L67.216 226.528L148.038 179.911L156.006 175.303L156.169 175.195V165.817L156.006 121.477L186.199 104.076V192.866Z" fill="#1467FF"/>
</svg>
