<svg width="441" height="140" viewBox="0 0 441 140" fill="none" xmlns="http://www.w3.org/2000/svg">
<rect x="0.828125" y="0.269531" width="440" height="139" rx="16" fill="#1467FF"/>
<path d="M118.828 53.4782L93.1163 38.6348L84.5559 43.5792L83.3173 44.2984V45.7368L83.2773 55.6058L99.2095 64.8055L84.5259 73.286L83.2773 74.0052V95.2215L91.8677 100.186L93.1163 100.905L94.3649 100.186L102.955 95.2215V85.3525L120.076 75.4636V54.2074L118.828 53.4782ZM93.1163 41.5215L116.33 54.9266L110.267 58.4226L87.0531 45.0176L93.1163 41.5215ZM85.7745 54.1674L85.7945 47.1752L109.019 60.5902V67.5924L101.707 63.3671L85.7745 54.1674ZM101.707 66.2539L107.78 69.7599L93.1163 78.2405L87.0232 74.7244L101.707 66.2539ZM91.8677 97.2991L85.7745 93.7831V76.892L91.8677 80.408V97.2991ZM117.579 74.0252L100.458 83.9141V93.7831L94.3649 97.2991V80.408L110.297 71.2083L111.516 70.5091L111.546 70.4891V69.0407L111.526 60.5802L117.579 57.0841V74.0252Z" fill="white"/>
<path d="M164.685 68.4852C164.685 71.4529 163.249 73.7902 158.934 73.7902H148.818V85.8355H142.078V53.6953H158.934C163.249 53.6953 164.685 56.0811 164.685 59.0488V68.4852ZM148.818 59.6307V67.8548H156.509C157.314 67.8548 157.993 67.1759 157.993 66.371V61.1145C157.993 60.3096 157.314 59.6307 156.509 59.6307H148.818Z" fill="white"/>
<path d="M184.149 79.677H173.452L171.473 85.8355H165.131L176.099 53.6953H182.035L193.188 85.8355H186.176L184.149 79.677ZM179.872 66.1867L178.834 62.7729H178.786L177.709 66.1867L175.323 73.829H182.248L179.862 66.1867H179.872Z" fill="white"/>
<path d="M214.302 53.6953C218.618 53.6953 220.053 56.0811 220.053 59.0488V68.2622C220.053 71.2298 218.618 73.5671 214.302 73.5671H213.623L222.119 85.8452H214.118L206.068 73.5671H203.818V85.8452H197.078V53.705H214.293L214.302 53.6953ZM203.828 67.6318H211.878C212.683 67.6318 213.361 66.9529 213.361 66.1479V61.1145C213.361 60.3096 212.683 59.6307 211.878 59.6307H203.828V67.6318Z" fill="white"/>
<path d="M244.271 79.677H233.573L231.595 85.8355H225.252L236.221 53.6953H242.156L253.309 85.8355H246.298L244.271 79.677ZM239.994 66.1867L238.956 62.7729H238.908L237.831 66.1867L235.445 73.829H242.37L239.984 66.1867H239.994Z" fill="white"/>
<path d="M264.015 53.6953L272.918 70.4637L281.86 53.6953H287.795V85.8355H281.365V67.3602H281.317L273.49 81.6167H271.919L264.325 67.3602H264.277V85.8355H257.798V53.6953H264.015Z" fill="white"/>
<path d="M302.351 85.8355H295.61V53.6953H302.351V85.8355Z" fill="white"/>
<path d="M310.158 85.8355V53.6953H329.108V59.6307H316.898V66.5941H326.296V72.6652H316.898V85.8355H310.158Z" fill="white"/>
<path d="M341.659 71.676L331.854 53.6953H339.36L345.296 65.0714L351.231 53.6953H358.379L348.574 71.676V85.8355H341.649V71.676H341.659Z" fill="white"/>
</svg>
